HIERARCHY
ROOT Hips
{
	OFFSET 0.000000 0.000000 0.000000
	CHANNELS 6 Xposition Yposition Zposition Zrotation Xrotation Yrotation
	JOINT Spine
	{
		OFFSET 0.000000 -0.000002 14.894144
		CHANNELS 6 Xposition Yposition Zposition Zrotation Xrotation Yrotation
		JOINT Spine1
		{
			OFFSET 0.000000 -0.000007 40.644821
			CHANNELS 6 Xposition Yposition Zposition Zrotation Xrotation Yrotation
			JOINT Neck
			{
				OFFSET 0.000000 -0.000007 44.277538
				CHANNELS 6 Xposition Yposition Zposition Zrotation Xrotation Yrotation
				JOINT Head
				{
					OFFSET 0.000000 -3.632723 28.153564
					CHANNELS 6 Xposition Yposition Zposition Zrotation Xrotation Yrotation
					End Site
					{
						OFFSET 0.000000 -0.000006 36.327175
					}
				}
			}
			JOINT LeftShoulder
			{
				OFFSET 7.315346 0.960243 35.751842
				CHANNELS 6 Xposition Yposition Zposition Zrotation Xrotation Yrotation
				JOINT LeftArm
				{
					OFFSET 26.103193 0.000000 0.000000
					CHANNELS 6 Xposition Yposition Zposition Zrotation Xrotation Yrotation
					JOINT LeftForeArm
					{
						OFFSET 51.184212 0.000000 0.000000
						CHANNELS 6 Xposition Yposition Zposition Zrotation Xrotation Yrotation
						JOINT LeftHand
						{
							OFFSET 47.569092 0.000000 0.000000
							CHANNELS 6 Xposition Yposition Zposition Zrotation Xrotation Yrotation
							End Site
							{
								OFFSET 27.245386 0.000000 0.000000
							}
						}
					}
				}
			}
			JOINT RightShoulder
			{
				OFFSET -7.214415 0.960243 35.751842
				CHANNELS 6 Xposition Yposition Zposition Zrotation Xrotation Yrotation
				JOINT RightArm
				{
					OFFSET -26.103186 0.000000 0.000000
					CHANNELS 6 Xposition Yposition Zposition Zrotation Xrotation Yrotation
					JOINT RightForeArm
					{
						OFFSET -51.184216 0.000000 0.000000
						CHANNELS 6 Xposition Yposition Zposition Zrotation Xrotation Yrotation
						JOINT RightHand
						{
							OFFSET -47.569092 0.000000 0.000000
							CHANNELS 6 Xposition Yposition Zposition Zrotation Xrotation Yrotation
							End Site
							{
								OFFSET -27.245386 0.000000 0.000000
							}
						}
					}
				}
			}
		}
	}
	JOINT LeftUpLeg
	{
		OFFSET 18.163589 0.000000 0.000000
		CHANNELS 6 Xposition Yposition Zposition Zrotation Xrotation Yrotation
		JOINT LeftLeg
		{
			OFFSET 0.000000 0.000012 -76.389740
			CHANNELS 6 Xposition Yposition Zposition Zrotation Xrotation Yrotation
			JOINT LeftFoot
			{
				OFFSET 0.000000 0.000013 -80.086090
				CHANNELS 6 Xposition Yposition Zposition Zrotation Xrotation Yrotation
				JOINT LeftToeBase
				{
					OFFSET 0.000000 -27.245386 -11.806335
					CHANNELS 6 Xposition Yposition Zposition Zrotation Xrotation Yrotation
					End Site
					{
						OFFSET 0.000000 -7.265436 0.000000
					}
				}
			}
		}
	}
	JOINT RightUpLeg
	{
		OFFSET -18.163589 0.000000 0.000000
		CHANNELS 6 Xposition Yposition Zposition Zrotation Xrotation Yrotation
		JOINT RightLeg
		{
			OFFSET 0.000000 0.000012 -76.389740
			CHANNELS 6 Xposition Yposition Zposition Zrotation Xrotation Yrotation
			JOINT RightFoot
			{
				OFFSET 0.000000 0.000013 -80.086090
				CHANNELS 6 Xposition Yposition Zposition Zrotation Xrotation Yrotation
				JOINT RightToeBase
				{
					OFFSET 0.000000 -27.245386 -11.806335
					CHANNELS 6 Xposition Yposition Zposition Zrotation Xrotation Yrotation
					End Site
					{
						OFFSET 0.000000 -7.265436 0.000000
					}
				}
			}
		}
	}
}
MOTION
Frames: 8
Frame Time: 0.041667
12.665852 1.474828 160.012772 1.173671 3.666732 -0.807124 0.000001 -0.000003 14.894145 -1.847647 -18.301598 1.405340 -0.000001 -0.000017 40.644833 0.089737 18.376771 -4.911330 -0.000002 -0.000009 44.277550 5.272013 9.340851 -6.605152 0.000006 -3.632716 28.153593 6.102323 6.234609 5.064290 7.315346 0.960240 35.751877 -0.029521 -8.784563 -20.891071 26.103209 0.000003 0.000021 -10.647318 -2.311624 14.178438 51.184212 -0.000002 -0.000020 -9.479159 -8.495363 -6.457837 47.569122 -0.000010 0.000024 -0.717916 -9.070248 7.188579 -7.214420 0.960240 35.751858 -9.378211 -5.306543 17.114528 -26.103193 -0.000006 -0.000019 24.952496 26.723916 -9.875352 -51.184185 -0.000012 -0.000012 73.866010 38.811327 44.489438 -47.569111 0.000006 0.000019 0.558090 5.926860 34.414294 18.163591 -0.000001 -0.000005 -1.840468 -6.981017 2.265687 -0.000001 0.000012 -76.389732 1.892999 13.521550 -1.381336 -0.000000 0.000008 -80.086082 21.597673 -6.174147 -0.554624 -0.000006 -27.245386 -11.806336 -0.000001 0.000001 0.000001 -18.163589 -0.000001 0.000005 0.775960 -5.844595 -1.143924 0.000001 0.000012 -76.389732 -0.759460 12.801838 -1.718270 -0.000001 0.000015 -80.086098 -21.609684 -11.746231 -3.434375 0.000000 -27.245386 -11.806335 -0.000001 -0.000001 -0.000001 
12.720449 1.504903 160.022293 1.178011 3.740224 -0.831998 -0.000001 -0.000002 14.894130 -1.845118 -18.272247 1.407582 0.000000 -0.000015 40.644833 0.083549 18.292092 -4.890130 0.000001 -0.000003 44.277519 5.288404 9.301896 -6.592268 -0.000002 -3.632737 28.153589 6.121634 6.223247 5.064262 7.315346 0.960242 35.751839 0.000631 -8.769754 -20.866563 26.103189 -0.000001 -0.000033 -10.651701 -2.437838 14.183762 51.184231 -0.000002 0.000017 -9.473699 -8.444765 -6.427880 47.569099 -0.000002 0.000034 -0.718192 -9.017013 7.196827 -7.214418 0.960246 35.751846 -9.345516 -5.292752 17.140361 -26.103186 -0.000002 -0.000016 24.907342 26.773788 -9.923799 -51.184189 -0.000019 -0.000016 73.868428 38.846786 44.595121 -47.569096 0.000028 0.000016 0.516386 5.855656 34.416183 18.163589 0.000000 -0.000011 -1.826027 -7.566439 2.288691 0.000002 0.000012 -76.389740 1.602105 14.514475 -1.266243 -0.000001 0.000007 -80.086090 21.905878 -6.489523 -0.503469 -0.000001 -27.245386 -11.806336 -0.000002 0.000002 0.000001 -18.163591 0.000001 -0.000014 0.793063 -5.936825 -1.049029 0.000001 0.000013 -76.389748 -0.736735 12.826175 -1.815644 -0.000000 0.000010 -80.086082 -21.623747 -11.758551 -3.418324 -0.000000 -27.245386 -11.806334 0.000002 -0.000000 0.000001 
12.783331 1.543172 160.034760 1.198488 3.814530 -0.857657 -0.000000 -0.000004 14.894150 -1.853329 -18.220088 1.408539 0.000002 -0.000009 40.644833 0.072852 18.185454 -4.868223 -0.000002 -0.000008 44.277519 5.299134 9.241393 -6.559156 -0.000005 -3.632719 28.153517 6.133125 6.236980 5.039939 7.315348 0.960243 35.751823 0.019820 -8.754151 -20.850582 26.103184 0.000004 -0.000011 -10.647688 -2.456207 14.207600 51.184235 -0.000002 -0.000006 -9.499442 -8.457287 -6.430993 47.569141 0.000013 -0.000015 -0.712839 -9.030795 7.182730 -7.214421 0.960243 35.751816 -9.348222 -5.301896 17.151474 -26.103180 -0.000004 -0.000075 24.894984 26.810898 -9.945104 -51.184193 -0.000013 0.000015 73.857151 38.891015 44.678337 -47.569080 0.000002 -0.000003 0.494150 5.832911 34.380102 18.163591 -0.000001 0.000002 -1.776933 -8.212226 2.320679 -0.000002 0.000012 -76.389740 1.367216 15.629915 -1.173526 0.000005 0.000008 -80.086090 22.048952 -6.949745 -0.618631 -0.000003 -27.245386 -11.806335 -0.000005 -0.000001 -0.000000 -18.163591 -0.000002 0.000010 0.811878 -6.032925 -0.949052 -0.000001 0.000013 -76.389763 -0.758925 12.844766 -1.911856 -0.000004 0.000013 -80.086082 -21.628665 -11.753605 -3.419706 -0.000001 -27.245386 -11.806336 -0.000000 0.000001 -0.000000 
12.858797 1.584969 160.047958 1.248936 3.885144 -0.884641 0.000000 -0.000004 14.894162 -1.884037 -18.160966 1.381479 0.000000 -0.000012 40.644833 0.049312 18.078893 -4.802020 -0.000000 -0.000011 44.277573 5.308307 9.188281 -6.540247 0.000001 -3.632734 28.153553 6.145261 6.215324 5.029123 7.315347 0.960240 35.751842 0.051622 -8.720300 -20.851009 26.103201 0.000002 -0.000006 -10.661570 -2.504052 14.230881 51.184238 -0.000002 -0.000004 -9.504001 -8.469719 -6.434646 47.569103 0.000006 0.000027 -0.667247 -9.041063 7.206357 -7.214417 0.960243 35.751904 -9.361451 -5.277566 17.148744 -26.103199 -0.000005 -0.000009 24.852432 26.697526 -9.925084 -51.184189 -0.000021 -0.000009 74.433407 38.424691 44.391291 -47.569103 0.000013 -0.000004 4.027959 6.136426 32.780072 18.163589 -0.000001 0.000022 -1.830830 -8.920417 2.344478 -0.000003 0.000013 -76.389740 0.986415 16.879421 -1.004967 0.000003 0.000010 -80.086082 22.461328 -7.563323 -0.506779 0.000000 -27.245382 -11.806335 0.000000 0.000001 -0.000001 -18.163589 -0.000001 0.000018 0.830541 -6.127320 -0.840834 0.000000 0.000013 -76.389709 -1.177498 12.867646 -1.925632 -0.000002 0.000011 -80.086098 -21.270801 -11.738821 -3.394128 -0.000001 -27.245386 -11.806335 -0.000001 0.000000 0.000000 
12.938614 1.625929 160.061523 1.310408 3.958980 -0.899132 0.000001 -0.000004 14.894150 -1.903995 -18.110716 1.352904 -0.000000 -0.000006 40.644825 0.032765 17.989865 -4.752472 -0.000002 -0.000008 44.277531 5.292005 9.120411 -6.525540 -0.000003 -3.632720 28.153549 6.133523 6.196776 5.031560 7.315345 0.960244 35.751842 0.043918 -8.675676 -20.839536 26.103216 -0.000000 0.000008 -10.657516 -2.550036 14.240705 51.184219 -0.000005 -0.000018 -9.506033 -8.460228 -6.458059 47.569115 -0.000001 0.000021 -0.702332 -9.035997 7.237059 -7.214420 0.960243 35.751842 -9.342895 -5.311204 17.148090 -26.103193 -0.000004 0.000007 24.776042 26.675761 -9.915393 -51.184204 0.000003 0.000015 74.053321 38.990514 44.541798 -47.569099 0.000001 -0.000010 0.302335 5.894715 34.485075 18.163591 -0.000001 0.000006 -1.803667 -9.647461 2.394717 0.000000 0.000014 -76.389740 0.710488 18.219542 -0.892425 0.000000 0.000013 -80.086082 22.657223 -8.277843 -0.445514 -0.000002 -27.245386 -11.806336 -0.000001 0.000002 -0.000000 -18.163589 -0.000002 -0.000002 0.850024 -6.228267 -0.743084 0.000002 0.000012 -76.389732 -1.207410 12.905703 -2.027144 -0.000001 0.000015 -80.086082 -21.304197 -11.733315 -3.420497 -0.000001 -27.245386 -11.806334 0.000003 -0.000000 0.000001 
13.039279 1.674506 160.079178 1.399457 4.029296 -0.902151 0.000002 -0.000004 14.894156 -1.938022 -18.038764 1.299148 0.000000 -0.000011 40.644833 0.011094 17.883151 -4.695247 0.000001 -0.000006 44.277538 5.272975 9.044312 -6.505306 -0.000002 -3.632715 28.153563 6.118747 6.176255 5.026372 7.315353 0.960245 35.751873 0.058142 -8.634005 -20.830503 26.103193 0.000002 -0.000047 -10.687047 -2.689795 14.251922 51.184216 0.000003 0.000008 -9.471409 -8.461629 -6.448368 47.569103 0.000006 -0.000023 -0.677186 -9.033201 7.257377 -7.214419 0.960245 35.751842 -9.368392 -5.270045 17.166635 -26.103199 -0.000006 -0.000005 24.693654 26.688338 -9.916343 -51.184189 -0.000011 -0.000011 73.946982 39.085126 44.732473 -47.569092 0.000026 0.000026 0.272331 5.897225 34.499893 18.163589 -0.000002 0.000011 -2.041554 -10.385846 2.374945 -0.000001 0.000014 -76.389755 0.634540 19.441804 -0.706304 0.000002 0.000013 -80.086090 22.810069 -8.865703 -0.463868 -0.000000 -27.245382 -11.806334 -0.000000 -0.000002 0.000001 -18.163588 -0.000002 0.000003 0.867254 -6.317192 -0.656938 -0.000001 0.000012 -76.389748 -1.079819 12.930586 -2.153302 -0.000003 0.000006 -80.086098 -21.505920 -11.714146 -3.424513 0.000002 -27.245392 -11.806334 0.000001 -0.000002 -0.000001 
13.143849 1.707645 160.096329 1.509357 4.104960 -0.904736 0.000001 -0.000003 14.894160 -1.987820 -18.005791 1.259821 0.000001 -0.000012 40.644817 -0.008833 17.819800 -4.677105 -0.000005 -0.000009 44.277512 5.254995 8.970365 -6.463453 -0.000005 -3.632717 28.153580 6.105600 6.124053 5.032738 7.315343 0.960243 35.751812 0.058154 -8.589781 -20.807891 26.103209 0.000000 0.000024 -10.698746 -2.753683 14.281526 51.184219 -0.000003 -0.000016 -9.467798 -8.479104 -6.479280 47.569099 0.000005 0.000020 -0.715924 -9.055582 7.281461 -7.214422 0.960243 35.751820 -9.381140 -5.268379 17.189373 -26.103199 -0.000005 -0.000005 24.582061 26.665373 -9.878563 -51.184204 -0.000025 -0.000008 74.553980 38.576447 44.523135 -47.569092 0.000011 0.000024 4.003267 6.108749 32.800880 18.163589 0.000001 0.000027 -2.275085 -11.074027 2.339072 -0.000001 0.000010 -76.389748 0.424256 20.531060 -0.409064 0.000001 0.000015 -80.086082 23.005325 -9.411179 -0.808496 -0.000000 -27.245382 -11.806349 -0.000004 0.000002 -0.000000 -18.163589 0.000000 0.000016 0.883015 -6.402485 -0.590216 -0.000000 0.000014 -76.389740 -1.444846 12.937573 -2.136299 -0.000004 0.000010 -80.086082 -21.275063 -11.676974 -3.440156 -0.000001 -27.245386 -11.806335 0.000000 -0.000000 -0.000001 
13.540709 1.150377 160.395294 2.678233 3.013660 -0.077740 -0.000002 -0.000003 14.894142 -3.186653 -17.289181 -0.393051 -0.000000 -0.000014 40.644825 -0.445620 18.280300 -3.796801 -0.000002 -0.000008 44.277493 5.225505 8.865904 -6.456279 -0.000004 -3.632728 28.153534 6.082672 6.080844 5.017042 7.315348 0.960241 35.751781 0.012652 -8.580394 -20.817010 26.103186 0.000000 -0.000028 -10.684893 -2.705053 14.297001 51.184212 -0.000001 0.000009 -9.488198 -8.525874 -6.506450 47.569103 0.000004 0.000008 -0.681080 -9.103589 7.304329 -7.214420 0.960243 35.751804 -9.375767 -5.290188 17.154898 -26.103193 -0.000005 -0.000030 24.425375 26.595662 -9.804071 -51.184185 -0.000035 -0.000028 74.675189 38.619679 44.445486 -47.569096 0.000009 0.000030 3.998635 6.152383 32.802970 18.163588 0.000000 -0.000010 -3.885333 -10.350871 1.661881 -0.000003 0.000011 -76.389778 0.749004 21.357650 -0.453805 0.000002 0.000016 -80.086090 22.951756 -9.866225 -1.007144 -0.000001 -27.245392 -11.806336 -0.000003 0.000001 -0.000000 -18.163591 -0.000000 -0.000002 0.584007 -4.604567 -1.155392 -0.000001 0.000012 -76.389755 -1.947993 12.119055 -2.509394 -0.000001 0.000010 -80.086082 -21.719030 -10.727465 -3.521854 -0.000001 -27.245386 -11.806334 0.000001 -0.000002 -0.000000 
